<?xml version="1.0" standalone="no"?>
<!DOCTYPE svg PUBLIC "-//W3C//DTD SVG 20010904//EN"
 "http://www.w3.org/TR/2001/REC-SVG-20010904/DTD/svg10.dtd">
<svg version="1.0" xmlns="http://www.w3.org/2000/svg"
 width="700.000000pt" height="700.000000pt" viewBox="0 0 700.000000 700.000000"
 preserveAspectRatio="xMidYMid meet">
<metadata>
Created by potrace 1.14, written by Peter Selinger 2001-2017
</metadata>
<g transform="translate(0.000000,700.000000) scale(0.100000,-0.100000)"
fill="#000000" stroke="none">
<path d="M2000 5576 c-47 -12 -106 -32 -131 -43 -49 -22 -152 -85 -178 -110
-150 -138 -215 -241 -272 -428 -8 -26 -14 -166 -18 -410 -6 -359 -7 -371 -29
-412 -34 -64 -106 -124 -167 -140 -11 -3 -128 -6 -260 -7 l-240 -1 -3 -525 -2
-525 247 -1 c226 -1 252 -3 293 -21 78 -35 132 -101 151 -183 5 -19 9 -179 10
-355 1 -343 6 -390 55 -517 63 -164 218 -334 380 -416 36 -18 137 -54 195 -69
13 -3 192 -8 397 -10 l372 -5 0 264 0 263 -333 0 -333 1 -56 27 c-64 31 -102
71 -131 137 -19 42 -21 68 -22 380 -2 273 -5 350 -19 414 -10 43 -21 86 -26
95 -4 9 -21 43 -36 76 -59 130 -168 248 -305 333 -71 43 -220 99 -277 104 -45
3 -28 13 48 28 133 25 271 101 380 210 82 81 135 160 179 267 48 118 54 170
56 539 l2 341 29 53 c33 60 91 112 149 130 29 10 126 14 365 14 l325 1 3 263
2 263 -357 -2 c-336 -1 -363 -2 -443 -23z"/>
<path d="M4202 5338 l3 -263 321 -1 c234 0 333 -4 368 -14 60 -16 128 -80 158
-146 20 -47 21 -63 23 -379 1 -215 6 -353 14 -395 36 -184 148 -366 295 -476
99 -74 231 -134 331 -150 55 -8 80 -23 40 -24 -40 0 -152 -33 -220 -64 -152
-69 -283 -193 -367 -346 -27 -50 -64 -148 -73 -195 -3 -16 -8 -41 -11 -55 -3
-14 -7 -178 -8 -365 -3 -329 -4 -342 -26 -387 -29 -63 -84 -114 -144 -137 -44
-16 -84 -18 -355 -19 -168 -1 -316 -1 -328 -2 l-23 0 0 -261 0 -260 373 4
c204 2 384 7 399 10 261 67 466 237 564 467 56 135 62 180 63 541 1 179 5 339
10 355 22 79 74 138 151 176 42 21 59 22 290 22 l245 1 0 525 0 524 -245 1
c-225 2 -249 3 -290 22 -56 26 -104 71 -132 126 -24 46 -24 41 -32 542 -3 171
-8 254 -18 290 -88 301 -308 511 -606 579 -48 11 -148 15 -418 16 l-354 1 2
-263z"/>
</g>
</svg>
